<svg viewBox="0 0 1370 400" xmlns="http://www.w3.org/2000/svg"><g><g><g><g><g><line x1="50" y1="378" x2="45" y2="378" style="visibility: inherit;" fill="rgb(0, 0, 0)" stroke="rgb(204, 204, 204)" stroke-width="1px"></line><line x1="50" y1="336" x2="45" y2="336" style="visibility: inherit;" fill="rgb(0, 0, 0)" stroke="rgb(204, 204, 204)" stroke-width="1px"></line><line x1="50" y1="294" x2="45" y2="294" style="visibility: inherit;" fill="rgb(0, 0, 0)" stroke="rgb(204, 204, 204)" stroke-width="1px"></line><line x1="50" y1="251.99999999999994" x2="45" y2="251.99999999999994" style="visibility: inherit;" fill="rgb(0, 0, 0)" stroke="rgb(204, 204, 204)" stroke-width="1px"></line><line x1="50" y1="209.99999999999997" x2="45" y2="209.99999999999997" style="visibility: inherit;" fill="rgb(0, 0, 0)" stroke="rgb(204, 204, 204)" stroke-width="1px"></line><line x1="50" y1="168" x2="45" y2="168" style="visibility: inherit;" fill="rgb(0, 0, 0)" stroke="rgb(204, 204, 204)" stroke-width="1px"></line><line x1="50" y1="125.99999999999993" x2="45" y2="125.99999999999993" style="visibility: inherit;" fill="rgb(0, 0, 0)" stroke="rgb(204, 204, 204)" stroke-width="1px"></line><line x1="50" y1="84" x2="45" y2="84" style="visibility: inherit;" fill="rgb(0, 0, 0)" stroke="rgb(204, 204, 204)" stroke-width="1px"></line><line x1="50" y1="41.999999999999936" x2="45" y2="41.999999999999936" style="visibility: inherit;" fill="rgb(0, 0, 0)" stroke="rgb(204, 204, 204)" stroke-width="1px"></line><line x1="50" y1="0" x2="45" y2="0" style="visibility: inherit;" fill="rgb(0, 0, 0)" stroke="rgb(204, 204, 204)" stroke-width="1px"></line></g><g transform="translate(40, 0)"><text x="0" y="378" dx="0em" dy="0.3em" style="text-anchor: end; visibility: hidden; font-family: Roboto, sans-serif; font-size: 12px; font-weight: 200;" fill="rgb(50, 49, 63)" stroke="none" stroke-width="1px">0.25</text><text x="0" y="336" dx="0em" dy="0.3em" style="text-anchor: end; visibility: inherit; font-family: Roboto, sans-serif; font-size: 12px; font-weight: 200;" fill="rgb(50, 49, 63)" stroke="none" stroke-width="1px">0.3</text><text x="0" y="294" dx="0em" dy="0.3em" style="text-anchor: end; visibility: inherit; font-family: Roboto, sans-serif; font-size: 12px; font-weight: 200;" fill="rgb(50, 49, 63)" stroke="none" stroke-width="1px">0.35</text><text x="0" y="251.99999999999994" dx="0em" dy="0.3em" style="text-anchor: end; visibility: inherit; font-family: Roboto, sans-serif; font-size: 12px; font-weight: 200;" fill="rgb(50, 49, 63)" stroke="none" stroke-width="1px">0.4</text><text x="0" y="209.99999999999997" dx="0em" dy="0.3em" style="text-anchor: end; visibility: inherit; font-family: Roboto, sans-serif; font-size: 12px; font-weight: 200;" fill="rgb(50, 49, 63)" stroke="none" stroke-width="1px">0.45</text><text x="0" y="168" dx="0em" dy="0.3em" style="text-anchor: end; visibility: inherit; font-family: Roboto, sans-serif; font-size: 12px; font-weight: 200;" fill="rgb(50, 49, 63)" stroke="none" stroke-width="1px">0.5</text><text x="0" y="125.99999999999993" dx="0em" dy="0.3em" style="text-anchor: end; visibility: inherit; font-family: Roboto, sans-serif; font-size: 12px; font-weight: 200;" fill="rgb(50, 49, 63)" stroke="none" stroke-width="1px">0.55</text><text x="0" y="84" dx="0em" dy="0.3em" style="text-anchor: end; visibility: inherit; font-family: Roboto, sans-serif; font-size: 12px; font-weight: 200;" fill="rgb(50, 49, 63)" stroke="none" stroke-width="1px">0.6</text><text x="0" y="41.999999999999936" dx="0em" dy="0.3em" style="text-anchor: end; visibility: inherit; font-family: Roboto, sans-serif; font-size: 12px; font-weight: 200;" fill="rgb(50, 49, 63)" stroke="none" stroke-width="1px">0.65</text><text x="0" y="0" dx="0em" dy="0.3em" style="text-anchor: end; visibility: hidden; font-family: Roboto, sans-serif; font-size: 12px; font-weight: 200;" fill="rgb(50, 49, 63)" stroke="none" stroke-width="1px">0.7</text></g><line x1="50" y1="0" x2="50" y2="378" fill="rgb(0, 0, 0)" stroke="rgb(204, 204, 204)" stroke-width="1px"></line></g></g><g transform="translate(50, 0)" clip-path="url(#clip_0)"><clipPath id="clip_0"><rect width="1320" height="378"></rect></clipPath><g><g><g><line x1="0" y1="0" x2="0" y2="378" fill="rgb(0, 0, 0)" stroke="rgb(60, 60, 60)" stroke-width="1px" opacity="0.25"></line><line x1="146.66666666666666" y1="0" x2="146.66666666666666" y2="378" fill="rgb(0, 0, 0)" stroke="rgb(60, 60, 60)" stroke-width="1px" opacity="0.25"></line><line x1="293.3333333333333" y1="0" x2="293.3333333333333" y2="378" fill="rgb(0, 0, 0)" stroke="rgb(60, 60, 60)" stroke-width="1px" opacity="0.25"></line><line x1="440" y1="0" x2="440" y2="378" fill="rgb(0, 0, 0)" stroke="rgb(60, 60, 60)" stroke-width="1px" opacity="0.25"></line><line x1="586.6666666666666" y1="0" x2="586.6666666666666" y2="378" fill="rgb(0, 0, 0)" stroke="rgb(60, 60, 60)" stroke-width="1px" opacity="0.25"></line><line x1="733.3333333333334" y1="0" x2="733.3333333333334" y2="378" fill="rgb(0, 0, 0)" stroke="rgb(60, 60, 60)" stroke-width="1px" opacity="0.25"></line><line x1="880" y1="0" x2="880" y2="378" fill="rgb(0, 0, 0)" stroke="rgb(60, 60, 60)" stroke-width="1px" opacity="0.25"></line><line x1="1026.6666666666667" y1="0" x2="1026.6666666666667" y2="378" fill="rgb(0, 0, 0)" stroke="rgb(60, 60, 60)" stroke-width="1px" opacity="0.25"></line><line x1="1173.3333333333333" y1="0" x2="1173.3333333333333" y2="378" fill="rgb(0, 0, 0)" stroke="rgb(60, 60, 60)" stroke-width="1px" opacity="0.25"></line><line x1="1320" y1="0" x2="1320" y2="378" fill="rgb(0, 0, 0)" stroke="rgb(60, 60, 60)" stroke-width="1px" opacity="0.25"></line></g><g><line x1="0" y1="378" x2="1320" y2="378" fill="rgb(0, 0, 0)" stroke="rgb(60, 60, 60)" stroke-width="1px" opacity="0.25"></line><line x1="0" y1="336" x2="1320" y2="336" fill="rgb(0, 0, 0)" stroke="rgb(60, 60, 60)" stroke-width="1px" opacity="0.25"></line><line x1="0" y1="294" x2="1320" y2="294" fill="rgb(0, 0, 0)" stroke="rgb(60, 60, 60)" stroke-width="1px" opacity="0.25"></line><line x1="0" y1="251.99999999999994" x2="1320" y2="251.99999999999994" fill="rgb(0, 0, 0)" stroke="rgb(60, 60, 60)" stroke-width="1px" opacity="0.25"></line><line x1="0" y1="209.99999999999997" x2="1320" y2="209.99999999999997" fill="rgb(0, 0, 0)" stroke="rgb(60, 60, 60)" stroke-width="1px" opacity="0.25"></line><line x1="0" y1="168" x2="1320" y2="168" fill="rgb(0, 0, 0)" stroke="rgb(60, 60, 60)" stroke-width="1px" opacity="0.25"></line><line x1="0" y1="125.99999999999993" x2="1320" y2="125.99999999999993" fill="rgb(0, 0, 0)" stroke="rgb(60, 60, 60)" stroke-width="1px" opacity="0.25"></line><line x1="0" y1="84" x2="1320" y2="84" fill="rgb(0, 0, 0)" stroke="rgb(60, 60, 60)" stroke-width="1px" opacity="0.25"></line><line x1="0" y1="41.999999999999936" x2="1320" y2="41.999999999999936" fill="rgb(0, 0, 0)" stroke="rgb(60, 60, 60)" stroke-width="1px" opacity="0.25"></line><line x1="0" y1="0" x2="1320" y2="0" fill="rgb(0, 0, 0)" stroke="rgb(60, 60, 60)" stroke-width="1px" opacity="0.25"></line></g></g></g><g><g><line x1="0" y1="588" x2="1320" y2="588" fill="rgb(0, 0, 0)" stroke="rgb(153, 153, 153)" stroke-width="1.5px"></line></g></g><g><g><line x1="146.66666666666666" y1="0" x2="146.66666666666666" y2="378" fill="rgb(0, 0, 0)" stroke="rgb(153, 153, 153)" stroke-width="1.5px"></line></g></g><g><g><g><g><g><path stroke="rgb(0, 119, 187)" stroke-width="2px" d="M146.66666666666666,134.85099363327024L220,193.0580334663391L293.3333333333333,209.51127219200131L366.6666666666667,185.1651291847229L440,208.34366369247437L513.3333333333334,212.99722480773923L586.6666666666666,191.66682171821594L660,206.77426028251645L733.3333333333334,199.8858432769775L806.6666666666667,198.52201867103574L880,195.97288656234738L953.3333333333334,184.58043622970578L1026.6666666666667,189.91794991493225" style="fill: none;" fill="none"></path></g><g><path stroke="rgb(255, 112, 67)" stroke-width="2px" d="M146.66666666666666,122.24725055694579L220,195.88056135177612L293.3333333333333,209.55523180961606L366.6666666666667,232.80986952781677L440,244.393529176712L513.3333333333334,257.0072607994079L586.6666666666666,272.34130668640137L660,287.48038816452026L733.3333333333334,286.7796628475189L806.6666666666667,290.425457239151L880,308.7813262939453L953.3333333333334,311.1325149536133L1026.6666666666667,311.9320242404938" style="fill: none;" fill="none"></path></g><g><path stroke="rgb(187, 187, 187)" stroke-width="2px" d="M146.66666666666666,110.22895145416258L220,164.34414196014404L293.3333333333333,198.44363737106323L366.6666666666667,215.8026795387268L440,207.70592379570004L513.3333333333334,211.9255964756012L586.6666666666666,191.08360576629636L660,192.04125452041626L733.3333333333334,174.72492027282715L806.6666666666667,172.0667903423309L880,165.1652054786682" style="fill: none;" fill="none"></path></g><g><path stroke="rgb(0, 153, 136)" stroke-width="2px" d="M146.66666666666666,138.34343004226685L220,198.680433511734L293.3333333333333,224.0765254497528L366.6666666666667,239.4021599292755L440,259.78062200546265L513.3333333333334,278.26373863220215L586.6666666666666,299.74344420433044L660,309.85548305511475L733.3333333333334,319.8417513370514L806.6666666666667,337.0801799297333L880,347.4013273715973" style="fill: none;" fill="none"></path></g><g><path stroke="rgb(238, 51, 119)" stroke-width="2px" d="M146.66666666666666,14.585040092468244L220,54.81875467300413L293.3333333333333,131.88046503067014L366.6666666666667,164.20845794677732L440,208.67473769187924L513.3333333333334,197.97885704040525L586.6666666666666,188.8737087249756L660,203.98738074302673L733.3333333333334,206.01004886627194L806.6666666666667,194.7865777015686L880,197.65506792068481L953.3333333333334,201.44585895538327" style="fill: none;" fill="none"></path></g><g><path stroke="rgb(51, 187, 238)" stroke-width="2px" d="M146.66666666666666,10.938444614410363L220,112.91068840026853L293.3333333333333,170.38683700561523L366.6666666666667,193.90465664863584L440,216.53832721710202L513.3333333333334,227.5415496826172L586.6666666666666,235.44662046432495L660,254.5751624107361L733.3333333333334,266.16680788993835L806.6666666666667,282.562668800354L880,296.94662618637085L953.3333333333334,300.1962583065033" style="fill: none;" fill="none"></path></g><g><path stroke="rgb(204, 51, 17)" stroke-width="2px" d="M146.66666666666666,46.914685249328585L220,90.73020744323729L293.3333333333333,120.32894897460936L366.6666666666667,174.5785717964172L440,210.47723221778867L513.3333333333334,210.3707377910614L586.6666666666666,209.88225030899045L660,204.13585710525513L733.3333333333334,137.53298091888425L806.6666666666667,178.34072399139401L880,164.2583255767822L953.3333333333334,134.7773938179016" style="fill: none;" fill="none"></path></g><g><path stroke="rgb(0, 119, 187)" stroke-width="2px" d="M146.66666666666666,124.09110116958617L220,191.79394412040708L293.3333333333333,218.7789409160614L366.6666666666667,235.2280740737915L440,251.08437824249268L513.3333333333334,265.08942174911493L586.6666666666666,279.5526616573334L660,291.89958143234253L733.3333333333334,303.78144550323486L806.6666666666667,328.9876298904419L880,338.77017188072205L953.3333333333334,353.3341734409332" style="fill: none;" fill="none"></path></g><g><path stroke="rgb(255, 112, 67)" stroke-width="2px" d="M146.66666666666666,139.56478643417356L220,197.574658870697L293.3333333333333,209.56499505043024L366.6666666666667,207.21087741851807L440,208.67318558692932L513.3333333333334,209.70603632926935L586.6666666666666,205.444531917572L660,206.13108801841733L733.3333333333334,192.928582906723L806.6666666666667,197.17394042015076L880,187.71696496009824L953.3333333333334,177.30126428604123L1026.6666666666667,168.69787144660947" style="fill: none;" fill="none"></path></g><g><path stroke="rgb(187, 187, 187)" stroke-width="2px" d="M146.66666666666666,89.85882568359372L220,180.42833018302915L293.3333333333333,207.59737658500669L366.6666666666667,221.17919611930844L440,231.74697804450986L513.3333333333334,245.00623512268066L586.6666666666666,258.6835091114044L660,265.9450571537018L733.3333333333334,275.6438355445862L806.6666666666667,288.52167534828186L880,298.3230929374695L953.3333333333334,312.15645360946655L1026.6666666666667,315.5179374217987" style="fill: none;" fill="none"></path></g><g><path stroke="rgb(0, 153, 136)" stroke-width="2px" d="M146.66666666666666,114.9132041931152L220,167.00935649871823L293.3333333333333,202.36332821846003L366.6666666666667,213.5306231975555L440,215.6989638805389L513.3333333333334,218.10775566101074L586.6666666666666,213.02235889434814L660,196.93646836280823L733.3333333333334,185.51212477684018L806.6666666666667,190.49350547790527L880,170.24942564964292L953.3333333333334,162.84180450439453L1026.6666666666667,145.70576477050778" style="fill: none;" fill="none"></path></g><g><path stroke="rgb(238, 51, 119)" stroke-width="2px" d="M146.66666666666666,120.06684350967404L220,191.42126369476316L293.3333333333333,215.6652932167053L366.6666666666667,234.2463676929474L440,248.4674792289734L513.3333333333334,265.39904165267944L586.6666666666666,276.8454151153564L660,293.26410698890686L733.3333333333334,301.85345578193665L806.6666666666667,319.3702368736267L880,335.21747875213623L953.3333333333334,352.9419915676117L1026.6666666666667,357.0904426574707" style="fill: none;" fill="none"></path></g><g><path stroke="rgb(51, 187, 238)" stroke-width="2px" d="M146.66666666666666,11.271896839141808L220,74.64659500122067L293.3333333333333,166.09857130050656L366.6666666666667,199.7779219150543L440,201.89071226119995L513.3333333333334,205.9693436622619L586.6666666666666,205.69414544105527L660,212.5090878009796L733.3333333333334,178.13186573982236L806.6666666666667,201.211315870285L880,148.44382810592649L953.3333333333334,173.34344673156735L1026.6666666666667,184.65824174880981L1100,168.65576434135437L1173.3333333333333,166.75746488571164" style="fill: none;" fill="none"></path></g><g><path stroke="rgb(204, 51, 17)" stroke-width="2px" d="M146.66666666666666,9.95380926132199L220,79.07024431228635L293.3333333333333,168.8314526081085L366.6666666666667,198.61895012855527L440,211.86153459548945L513.3333333333334,229.94305658340454L586.6666666666666,242.73202586174008L660,256.8082158565521L733.3333333333334,263.35584568977356L806.6666666666667,274.5973913669586L880,284.7022204399109L953.3333333333334,303.6453859806061L1026.6666666666667,309.35517954826355L1100,312.93871450424194L1173.3333333333333,319.23465299606323" style="fill: none;" fill="none"></path></g><g><path stroke="rgb(0, 119, 187)" stroke-width="2px" d="M146.66666666666666,43.13295650482173L220,81.49257946014403L293.3333333333333,126.40704202651975L366.6666666666667,161.5079455375671L440,195.57269382476807L513.3333333333334,201.4873902797699L586.6666666666666,212.7533941268921L660,189.96381211280823L733.3333333333334,155.38704442977902L806.6666666666667,179.37745499610898L880,164.20950937271118L953.3333333333334,157.76632118225095L1026.6666666666667,146.55015993118283L1100,141.11959505081174" style="fill: none;" fill="none"></path></g><g><path stroke="rgb(255, 112, 67)" stroke-width="2px" d="M146.66666666666666,113.7396626472473L220,184.13743543624875L293.3333333333333,212.41218137741083L366.6666666666667,232.5045304298401L440,248.11645317077637L513.3333333333334,264.8794620037079L586.6666666666666,278.33223152160645L660,306.76659393310547L733.3333333333334,315.0470988750458L806.6666666666667,326.7025809288025L880,340.80991315841675L953.3333333333334,348.7923138141632L1026.6666666666667,353.60781955718994L1100,366.68768334388733" style="fill: none;" fill="none"></path></g></g></g></g></g><g><g opacity="0.319258"><span fill="rgb(0, 0, 0)" stroke="none" stroke-width="1px">Alt + Scroll to Zoom</span></g></g></g><g transform="translate(50, 378)" clip-path="url(#clip_1)"><clipPath id="clip_1"><rect width="1320" height="22"></rect></clipPath><g><g><line x1="0" y1="0" x2="0" y2="5" style="visibility: inherit;" fill="rgb(0, 0, 0)" stroke="rgb(204, 204, 204)" stroke-width="1px"></line><line x1="146.66666666666666" y1="0" x2="146.66666666666666" y2="5" style="visibility: inherit;" fill="rgb(0, 0, 0)" stroke="rgb(204, 204, 204)" stroke-width="1px"></line><line x1="293.3333333333333" y1="0" x2="293.3333333333333" y2="5" style="visibility: inherit;" fill="rgb(0, 0, 0)" stroke="rgb(204, 204, 204)" stroke-width="1px"></line><line x1="440" y1="0" x2="440" y2="5" style="visibility: inherit;" fill="rgb(0, 0, 0)" stroke="rgb(204, 204, 204)" stroke-width="1px"></line><line x1="586.6666666666666" y1="0" x2="586.6666666666666" y2="5" style="visibility: inherit;" fill="rgb(0, 0, 0)" stroke="rgb(204, 204, 204)" stroke-width="1px"></line><line x1="733.3333333333334" y1="0" x2="733.3333333333334" y2="5" style="visibility: inherit;" fill="rgb(0, 0, 0)" stroke="rgb(204, 204, 204)" stroke-width="1px"></line><line x1="880" y1="0" x2="880" y2="5" style="visibility: inherit;" fill="rgb(0, 0, 0)" stroke="rgb(204, 204, 204)" stroke-width="1px"></line><line x1="1026.6666666666667" y1="0" x2="1026.6666666666667" y2="5" style="visibility: inherit;" fill="rgb(0, 0, 0)" stroke="rgb(204, 204, 204)" stroke-width="1px"></line><line x1="1173.3333333333333" y1="0" x2="1173.3333333333333" y2="5" style="visibility: inherit;" fill="rgb(0, 0, 0)" stroke="rgb(204, 204, 204)" stroke-width="1px"></line><line x1="1320" y1="0" x2="1320" y2="5" style="visibility: inherit;" fill="rgb(0, 0, 0)" stroke="rgb(204, 204, 204)" stroke-width="1px"></line></g><g transform="translate(0, 8)"><text x="0" y="0" dx="0em" dy="0.95em" style="text-anchor: middle; visibility: hidden; font-family: Roboto, sans-serif; font-size: 12px; font-weight: 200;" fill="rgb(50, 49, 63)" stroke="none" stroke-width="1px">-2</text><text x="146.66666666666666" y="0" dx="0em" dy="0.95em" style="text-anchor: middle; visibility: inherit; font-family: Roboto, sans-serif; font-size: 12px; font-weight: 200;" fill="rgb(50, 49, 63)" stroke="none" stroke-width="1px">0</text><text x="293.3333333333333" y="0" dx="0em" dy="0.95em" style="text-anchor: middle; visibility: inherit; font-family: Roboto, sans-serif; font-size: 12px; font-weight: 200;" fill="rgb(50, 49, 63)" stroke="none" stroke-width="1px">2</text><text x="440" y="0" dx="0em" dy="0.95em" style="text-anchor: middle; visibility: inherit; font-family: Roboto, sans-serif; font-size: 12px; font-weight: 200;" fill="rgb(50, 49, 63)" stroke="none" stroke-width="1px">4</text><text x="586.6666666666666" y="0" dx="0em" dy="0.95em" style="text-anchor: middle; visibility: inherit; font-family: Roboto, sans-serif; font-size: 12px; font-weight: 200;" fill="rgb(50, 49, 63)" stroke="none" stroke-width="1px">6</text><text x="733.3333333333334" y="0" dx="0em" dy="0.95em" style="text-anchor: middle; visibility: inherit; font-family: Roboto, sans-serif; font-size: 12px; font-weight: 200;" fill="rgb(50, 49, 63)" stroke="none" stroke-width="1px">8</text><text x="880" y="0" dx="0em" dy="0.95em" style="text-anchor: middle; visibility: inherit; font-family: Roboto, sans-serif; font-size: 12px; font-weight: 200;" fill="rgb(50, 49, 63)" stroke="none" stroke-width="1px">10</text><text x="1026.6666666666667" y="0" dx="0em" dy="0.95em" style="text-anchor: middle; visibility: inherit; font-family: Roboto, sans-serif; font-size: 12px; font-weight: 200;" fill="rgb(50, 49, 63)" stroke="none" stroke-width="1px">12</text><text x="1173.3333333333333" y="0" dx="0em" dy="0.95em" style="text-anchor: middle; visibility: inherit; font-family: Roboto, sans-serif; font-size: 12px; font-weight: 200;" fill="rgb(50, 49, 63)" stroke="none" stroke-width="1px">14</text><text x="1320" y="0" dx="0em" dy="0.95em" style="text-anchor: middle; visibility: hidden; font-family: Roboto, sans-serif; font-size: 12px; font-weight: 200;" fill="rgb(50, 49, 63)" stroke="none" stroke-width="1px">16</text></g><line x1="0" y1="0" x2="1320" y2="0" fill="rgb(0, 0, 0)" stroke="rgb(204, 204, 204)" stroke-width="1px"></line></g></g></g></g></svg>