<svg viewBox="0 0 1370 400" xmlns="http://www.w3.org/2000/svg"><g><g><g><g><g><line x1="50" y1="378" x2="45" y2="378" style="visibility: inherit;" fill="rgb(0, 0, 0)" stroke="rgb(204, 204, 204)" stroke-width="1px"></line><line x1="50" y1="346.5" x2="45" y2="346.5" style="visibility: inherit;" fill="rgb(0, 0, 0)" stroke="rgb(204, 204, 204)" stroke-width="1px"></line><line x1="50" y1="315.0000000000001" x2="45" y2="315.0000000000001" style="visibility: inherit;" fill="rgb(0, 0, 0)" stroke="rgb(204, 204, 204)" stroke-width="1px"></line><line x1="50" y1="283.50000000000006" x2="45" y2="283.50000000000006" style="visibility: inherit;" fill="rgb(0, 0, 0)" stroke="rgb(204, 204, 204)" stroke-width="1px"></line><line x1="50" y1="252.00000000000003" x2="45" y2="252.00000000000003" style="visibility: inherit;" fill="rgb(0, 0, 0)" stroke="rgb(204, 204, 204)" stroke-width="1px"></line><line x1="50" y1="220.50000000000006" x2="45" y2="220.50000000000006" style="visibility: inherit;" fill="rgb(0, 0, 0)" stroke="rgb(204, 204, 204)" stroke-width="1px"></line><line x1="50" y1="189" x2="45" y2="189" style="visibility: inherit;" fill="rgb(0, 0, 0)" stroke="rgb(204, 204, 204)" stroke-width="1px"></line><line x1="50" y1="157.5" x2="45" y2="157.5" style="visibility: inherit;" fill="rgb(0, 0, 0)" stroke="rgb(204, 204, 204)" stroke-width="1px"></line><line x1="50" y1="126.0000000000001" x2="45" y2="126.0000000000001" style="visibility: inherit;" fill="rgb(0, 0, 0)" stroke="rgb(204, 204, 204)" stroke-width="1px"></line><line x1="50" y1="94.50000000000009" x2="45" y2="94.50000000000009" style="visibility: inherit;" fill="rgb(0, 0, 0)" stroke="rgb(204, 204, 204)" stroke-width="1px"></line><line x1="50" y1="63.00000000000007" x2="45" y2="63.00000000000007" style="visibility: inherit;" fill="rgb(0, 0, 0)" stroke="rgb(204, 204, 204)" stroke-width="1px"></line><line x1="50" y1="31.500000000000014" x2="45" y2="31.500000000000014" style="visibility: inherit;" fill="rgb(0, 0, 0)" stroke="rgb(204, 204, 204)" stroke-width="1px"></line><line x1="50" y1="0" x2="45" y2="0" style="visibility: inherit;" fill="rgb(0, 0, 0)" stroke="rgb(204, 204, 204)" stroke-width="1px"></line></g><g transform="translate(40, 0)"><text x="0" y="378" dx="0em" dy="0.3em" style="text-anchor: end; visibility: hidden; font-family: Roboto, sans-serif; font-size: 12px; font-weight: 200;" fill="rgb(50, 49, 63)" stroke="none" stroke-width="1px">0.66</text><text x="0" y="346.5" dx="0em" dy="0.3em" style="text-anchor: end; visibility: inherit; font-family: Roboto, sans-serif; font-size: 12px; font-weight: 200;" fill="rgb(50, 49, 63)" stroke="none" stroke-width="1px">0.68</text><text x="0" y="315.0000000000001" dx="0em" dy="0.3em" style="text-anchor: end; visibility: inherit; font-family: Roboto, sans-serif; font-size: 12px; font-weight: 200;" fill="rgb(50, 49, 63)" stroke="none" stroke-width="1px">0.7</text><text x="0" y="283.50000000000006" dx="0em" dy="0.3em" style="text-anchor: end; visibility: inherit; font-family: Roboto, sans-serif; font-size: 12px; font-weight: 200;" fill="rgb(50, 49, 63)" stroke="none" stroke-width="1px">0.72</text><text x="0" y="252.00000000000003" dx="0em" dy="0.3em" style="text-anchor: end; visibility: inherit; font-family: Roboto, sans-serif; font-size: 12px; font-weight: 200;" fill="rgb(50, 49, 63)" stroke="none" stroke-width="1px">0.74</text><text x="0" y="220.50000000000006" dx="0em" dy="0.3em" style="text-anchor: end; visibility: inherit; font-family: Roboto, sans-serif; font-size: 12px; font-weight: 200;" fill="rgb(50, 49, 63)" stroke="none" stroke-width="1px">0.76</text><text x="0" y="189" dx="0em" dy="0.3em" style="text-anchor: end; visibility: inherit; font-family: Roboto, sans-serif; font-size: 12px; font-weight: 200;" fill="rgb(50, 49, 63)" stroke="none" stroke-width="1px">0.78</text><text x="0" y="157.5" dx="0em" dy="0.3em" style="text-anchor: end; visibility: inherit; font-family: Roboto, sans-serif; font-size: 12px; font-weight: 200;" fill="rgb(50, 49, 63)" stroke="none" stroke-width="1px">0.8</text><text x="0" y="126.0000000000001" dx="0em" dy="0.3em" style="text-anchor: end; visibility: inherit; font-family: Roboto, sans-serif; font-size: 12px; font-weight: 200;" fill="rgb(50, 49, 63)" stroke="none" stroke-width="1px">0.82</text><text x="0" y="94.50000000000009" dx="0em" dy="0.3em" style="text-anchor: end; visibility: inherit; font-family: Roboto, sans-serif; font-size: 12px; font-weight: 200;" fill="rgb(50, 49, 63)" stroke="none" stroke-width="1px">0.84</text><text x="0" y="63.00000000000007" dx="0em" dy="0.3em" style="text-anchor: end; visibility: inherit; font-family: Roboto, sans-serif; font-size: 12px; font-weight: 200;" fill="rgb(50, 49, 63)" stroke="none" stroke-width="1px">0.86</text><text x="0" y="31.500000000000014" dx="0em" dy="0.3em" style="text-anchor: end; visibility: inherit; font-family: Roboto, sans-serif; font-size: 12px; font-weight: 200;" fill="rgb(50, 49, 63)" stroke="none" stroke-width="1px">0.88</text><text x="0" y="0" dx="0em" dy="0.3em" style="text-anchor: end; visibility: hidden; font-family: Roboto, sans-serif; font-size: 12px; font-weight: 200;" fill="rgb(50, 49, 63)" stroke="none" stroke-width="1px">0.9</text></g><line x1="50" y1="0" x2="50" y2="378" fill="rgb(0, 0, 0)" stroke="rgb(204, 204, 204)" stroke-width="1px"></line></g></g><g transform="translate(50, 0)" clip-path="url(#clip_0)"><clipPath id="clip_0"><rect width="1320" height="378"></rect></clipPath><g><g><g><line x1="0" y1="0" x2="0" y2="378" fill="rgb(0, 0, 0)" stroke="rgb(60, 60, 60)" stroke-width="1px" opacity="0.25"></line><line x1="146.66666666666666" y1="0" x2="146.66666666666666" y2="378" fill="rgb(0, 0, 0)" stroke="rgb(60, 60, 60)" stroke-width="1px" opacity="0.25"></line><line x1="293.3333333333333" y1="0" x2="293.3333333333333" y2="378" fill="rgb(0, 0, 0)" stroke="rgb(60, 60, 60)" stroke-width="1px" opacity="0.25"></line><line x1="440" y1="0" x2="440" y2="378" fill="rgb(0, 0, 0)" stroke="rgb(60, 60, 60)" stroke-width="1px" opacity="0.25"></line><line x1="586.6666666666666" y1="0" x2="586.6666666666666" y2="378" fill="rgb(0, 0, 0)" stroke="rgb(60, 60, 60)" stroke-width="1px" opacity="0.25"></line><line x1="733.3333333333334" y1="0" x2="733.3333333333334" y2="378" fill="rgb(0, 0, 0)" stroke="rgb(60, 60, 60)" stroke-width="1px" opacity="0.25"></line><line x1="880" y1="0" x2="880" y2="378" fill="rgb(0, 0, 0)" stroke="rgb(60, 60, 60)" stroke-width="1px" opacity="0.25"></line><line x1="1026.6666666666667" y1="0" x2="1026.6666666666667" y2="378" fill="rgb(0, 0, 0)" stroke="rgb(60, 60, 60)" stroke-width="1px" opacity="0.25"></line><line x1="1173.3333333333333" y1="0" x2="1173.3333333333333" y2="378" fill="rgb(0, 0, 0)" stroke="rgb(60, 60, 60)" stroke-width="1px" opacity="0.25"></line><line x1="1320" y1="0" x2="1320" y2="378" fill="rgb(0, 0, 0)" stroke="rgb(60, 60, 60)" stroke-width="1px" opacity="0.25"></line></g><g><line x1="0" y1="378" x2="1320" y2="378" fill="rgb(0, 0, 0)" stroke="rgb(60, 60, 60)" stroke-width="1px" opacity="0.25"></line><line x1="0" y1="346.5" x2="1320" y2="346.5" fill="rgb(0, 0, 0)" stroke="rgb(60, 60, 60)" stroke-width="1px" opacity="0.25"></line><line x1="0" y1="315.0000000000001" x2="1320" y2="315.0000000000001" fill="rgb(0, 0, 0)" stroke="rgb(60, 60, 60)" stroke-width="1px" opacity="0.25"></line><line x1="0" y1="283.50000000000006" x2="1320" y2="283.50000000000006" fill="rgb(0, 0, 0)" stroke="rgb(60, 60, 60)" stroke-width="1px" opacity="0.25"></line><line x1="0" y1="252.00000000000003" x2="1320" y2="252.00000000000003" fill="rgb(0, 0, 0)" stroke="rgb(60, 60, 60)" stroke-width="1px" opacity="0.25"></line><line x1="0" y1="220.50000000000006" x2="1320" y2="220.50000000000006" fill="rgb(0, 0, 0)" stroke="rgb(60, 60, 60)" stroke-width="1px" opacity="0.25"></line><line x1="0" y1="189" x2="1320" y2="189" fill="rgb(0, 0, 0)" stroke="rgb(60, 60, 60)" stroke-width="1px" opacity="0.25"></line><line x1="0" y1="157.5" x2="1320" y2="157.5" fill="rgb(0, 0, 0)" stroke="rgb(60, 60, 60)" stroke-width="1px" opacity="0.25"></line><line x1="0" y1="126.0000000000001" x2="1320" y2="126.0000000000001" fill="rgb(0, 0, 0)" stroke="rgb(60, 60, 60)" stroke-width="1px" opacity="0.25"></line><line x1="0" y1="94.50000000000009" x2="1320" y2="94.50000000000009" fill="rgb(0, 0, 0)" stroke="rgb(60, 60, 60)" stroke-width="1px" opacity="0.25"></line><line x1="0" y1="63.00000000000007" x2="1320" y2="63.00000000000007" fill="rgb(0, 0, 0)" stroke="rgb(60, 60, 60)" stroke-width="1px" opacity="0.25"></line><line x1="0" y1="31.500000000000014" x2="1320" y2="31.500000000000014" fill="rgb(0, 0, 0)" stroke="rgb(60, 60, 60)" stroke-width="1px" opacity="0.25"></line><line x1="0" y1="0" x2="1320" y2="0" fill="rgb(0, 0, 0)" stroke="rgb(60, 60, 60)" stroke-width="1px" opacity="0.25"></line></g></g></g><g><g><line x1="0" y1="1417.5000000000002" x2="1320" y2="1417.5000000000002" fill="rgb(0, 0, 0)" stroke="rgb(153, 153, 153)" stroke-width="1.5px"></line></g></g><g><g><line x1="146.66666666666666" y1="0" x2="146.66666666666666" y2="378" fill="rgb(0, 0, 0)" stroke="rgb(153, 153, 153)" stroke-width="1.5px"></line></g></g><g><g><g><g><g><path stroke="rgb(0, 119, 187)" stroke-width="2px" d="M146.66666666666666,226.41916751861575L220,159.15569543838507L293.3333333333333,147.7726954221726L366.6666666666667,156.05126649141317L440,164.32983756065374L513.3333333333334,153.98164719343188L586.6666666666666,146.73788577318194L660,157.08607614040378L733.3333333333334,151.9119340181351L806.6666666666667,159.15569543838507L880,151.9119340181351L953.3333333333334,151.9119340181351L1026.6666666666667,152.94674366712573" style="fill: none;" fill="none"></path></g><g><path stroke="rgb(255, 112, 67)" stroke-width="2px" d="M146.66666666666666,287.7717483043671L220,183.0475661158562L293.3333333333333,170.8943966031075L366.6666666666667,141.67498826980594L440,129.52181875705725L513.3333333333334,112.71421194076541L586.6666666666666,100.56104242801672L660,81.16767883300786L733.3333333333334,83.23635935783389L806.6666666666667,82.2020190954209L880,67.72163093090063L953.3333333333334,54.792753159999904L1026.6666666666667,53.24124276638037" style="fill: none;" fill="none"></path></g><g><path stroke="rgb(187, 187, 187)" stroke-width="2px" d="M146.66666666666666,166.39945685863498L220,168.46907615661624L293.3333333333333,145.70298224687582L366.6666666666667,150.8771243691445L440,149.84231472015384L513.3333333333334,164.32983756065374L586.6666666666666,150.8771243691445L660,163.29502791166308L733.3333333333334,166.39945685863498L806.6666666666667,167.43426650762564L880,169.50397968292242" style="fill: none;" fill="none"></path></g><g><path stroke="rgb(0, 153, 136)" stroke-width="2px" d="M146.66666666666666,258.035169839859L220,179.94454532861712L293.3333333333333,155.1210361719132L366.6666666666667,138.8306933641434L440,119.43732976913455L513.3333333333334,94.61382061243063L586.6666666666666,75.73753327131276L660,69.79021757841116L733.3333333333334,56.86133980751043L806.6666666666667,35.14075756073004L880,26.60768508911137" style="fill: none;" fill="none"></path></g><g><path stroke="rgb(238, 51, 119)" stroke-width="2px" d="M220,389.9211573600769L293.3333333333333,196.40931218862536L366.6666666666667,174.67802792787555L440,164.32983756065374L513.3333333333334,170.53878933191302L586.6666666666666,159.15569543838507L660,168.46907615661624L733.3333333333334,156.05126649141317L806.6666666666667,157.08607614040378L880,171.57359898090365L953.3333333333334,152.94674366712573" style="fill: none;" fill="none"></path></g><g><path stroke="rgb(51, 187, 238)" stroke-width="2px" d="M146.66666666666666,553.8486930727959L220,269.9298012256623L293.3333333333333,198.3036625385285L366.6666666666667,164.42991077899936L440,149.1738143563271L513.3333333333334,134.1762560606003L586.6666666666666,128.4874784946442L660,103.40543121099475L733.3333333333334,105.73264986276632L806.6666666666667,87.3736265301705L880,66.9459226727486L953.3333333333334,65.6530442833901" style="fill: none;" fill="none"></path></g><g><path stroke="rgb(204, 51, 17)" stroke-width="2px" d="M146.66666666666666,352.66754060983664L220,173.64321827888492L293.3333333333333,169.50397968292242L366.6666666666667,174.67802792787555L440,155.0164568424225L513.3333333333334,152.94674366712573L586.6666666666666,158.1208857893944L660,159.15569543838507L733.3333333333334,215.0361675024033L806.6666666666667,158.1208857893944L880,166.39945685863498L953.3333333333334,197.44412183761602" style="fill: none;" fill="none"></path></g><g><path stroke="rgb(0, 119, 187)" stroke-width="2px" d="M146.66666666666666,269.1540929675103L220,177.1002504229546L293.3333333333333,151.75957113504413L366.6666666666667,130.29752701520923L440,119.17869776487355L513.3333333333334,100.56104242801672L586.6666666666666,93.57948035001759L660,74.70328688621527L733.3333333333334,66.4287525415421L806.6666666666667,54.27558302879336L880,32.29646265506747L953.3333333333334,20.401831269264278" style="fill: none;" fill="none"></path></g><g><path stroke="rgb(255, 112, 67)" stroke-width="2px" d="M146.66666666666666,233.6629289388657L220,173.64321827888492L293.3333333333333,164.32983756065374L366.6666666666667,157.08607614040378L440,149.84231472015384L513.3333333333334,145.70298224687582L586.6666666666666,139.49412435293203L660,146.73788577318194L733.3333333333334,159.15569543838507L806.6666666666667,152.94674366712573L880,170.53878933191302L953.3333333333334,159.15569543838507L1026.6666666666667,191.2351700663567" style="fill: none;" fill="none"></path></g><g><path stroke="rgb(187, 187, 187)" stroke-width="2px" d="M146.66666666666666,321.12832993268967L220,197.26932227611545L293.3333333333333,169.08434808254248L366.6666666666667,156.1553764343262L440,142.96786665916446L513.3333333333334,127.19460010528567L586.6666666666666,110.38708716630939L660,105.73264986276632L733.3333333333334,96.16523712873462L806.6666666666667,85.56357800960546L880,75.22036314010626L953.3333333333334,63.32582563161853L1026.6666666666667,61.515777111053495" style="fill: none;" fill="none"></path></g><g><path stroke="rgb(0, 153, 136)" stroke-width="2px" d="M146.66666666666666,201.58345431089404L220,167.43426650762564L293.3333333333333,171.57359898090365L366.6666666666667,146.73788577318194L440,153.98164719343188L513.3333333333334,140.52893400192264L586.6666666666666,138.45922082662585L660,146.73788577318194L733.3333333333334,150.8771243691445L806.6666666666667,140.52893400192264L880,164.32983756065374L953.3333333333334,162.26021826267245L1026.6666666666667,163.29502791166308" style="fill: none;" fill="none"></path></g><g><path stroke="rgb(238, 51, 119)" stroke-width="2px" d="M146.66666666666666,272.2570198774338L220,188.4777116775513L293.3333333333333,166.49849742650989L366.6666666666667,140.12357175350195L440,131.84903740882876L513.3333333333334,113.74855220317845L586.6666666666666,102.88826107978825L660,85.30494600534442L733.3333333333334,77.2890436649323L806.6666666666667,54.01695102453236L880,45.2253404259682L953.3333333333334,28.417733609676404L1026.6666666666667,27.12485522031787" style="fill: none;" fill="none"></path></g><g><path stroke="rgb(51, 187, 238)" stroke-width="2px" d="M146.66666666666666,541.0052436590195L220,233.6629289388657L293.3333333333333,194.33969289064413L366.6666666666667,168.46907615661624L440,168.46907615661624L513.3333333333334,164.32983756065374L586.6666666666666,161.2253147363663L660,157.08607614040378L733.3333333333334,176.74774110317233L806.6666666666667,165.36464720964435L880,177.782550752163L953.3333333333334,173.64321827888492L1026.6666666666667,170.53878933191302L1100,168.46907615661624L1173.3333333333333,181.9217893481255" style="fill: none;" fill="none"></path></g><g><path stroke="rgb(204, 51, 17)" stroke-width="2px" d="M146.66666666666666,550.7457661628723L220,348.79613399505615L293.3333333333333,201.40658944845202L366.6666666666667,173.22152137756353L440,148.91518235206607L513.3333333333334,131.84903740882876L586.6666666666666,121.50591641664508L660,105.47401785850528L733.3333333333334,99.26816403865818L806.6666666666667,91.76943182945256L880,81.9434809684754L953.3333333333334,55.0512912869454L1026.6666666666667,52.98270463943487L1100,48.06972920894627L1173.3333333333333,35.14075756073004" style="fill: none;" fill="none"></path></g><g><path stroke="rgb(0, 119, 187)" stroke-width="2px" d="M146.66666666666666,359.9113020300865L220,225.38435786962512L293.3333333333333,155.0164568424225L366.6666666666667,135.35479187965396L440,146.73788577318194L513.3333333333334,160.19050508737567L586.6666666666666,146.73788577318194L660,175.7128375768662L733.3333333333334,189.16555076837545L806.6666666666667,168.46907615661624L880,167.43426650762564L953.3333333333334,170.53878933191302L1026.6666666666667,167.43426650762564L1100,170.53878933191302" style="fill: none;" fill="none"></path></g><g><path stroke="rgb(255, 112, 67)" stroke-width="2px" d="M146.66666666666666,274.3256065249443L220,180.46171545982367L293.3333333333333,155.3796681761742L366.6666666666667,129.52181875705725L440,125.64318358898169L513.3333333333334,107.80123651027685L586.6666666666666,89.70075130462652L660,70.04884958267216L733.3333333333334,51.94836437702183L806.6666666666667,41.34670525789264L880,34.623587429523496L953.3333333333334,21.953247785568266L1026.6666666666667,18.591782748699245L1100,10.058710277080579" style="fill: none;" fill="none"></path></g></g></g></g></g></g><g transform="translate(50, 378)" clip-path="url(#clip_1)"><clipPath id="clip_1"><rect width="1320" height="22"></rect></clipPath><g><g><line x1="0" y1="0" x2="0" y2="5" style="visibility: inherit;" fill="rgb(0, 0, 0)" stroke="rgb(204, 204, 204)" stroke-width="1px"></line><line x1="146.66666666666666" y1="0" x2="146.66666666666666" y2="5" style="visibility: inherit;" fill="rgb(0, 0, 0)" stroke="rgb(204, 204, 204)" stroke-width="1px"></line><line x1="293.3333333333333" y1="0" x2="293.3333333333333" y2="5" style="visibility: inherit;" fill="rgb(0, 0, 0)" stroke="rgb(204, 204, 204)" stroke-width="1px"></line><line x1="440" y1="0" x2="440" y2="5" style="visibility: inherit;" fill="rgb(0, 0, 0)" stroke="rgb(204, 204, 204)" stroke-width="1px"></line><line x1="586.6666666666666" y1="0" x2="586.6666666666666" y2="5" style="visibility: inherit;" fill="rgb(0, 0, 0)" stroke="rgb(204, 204, 204)" stroke-width="1px"></line><line x1="733.3333333333334" y1="0" x2="733.3333333333334" y2="5" style="visibility: inherit;" fill="rgb(0, 0, 0)" stroke="rgb(204, 204, 204)" stroke-width="1px"></line><line x1="880" y1="0" x2="880" y2="5" style="visibility: inherit;" fill="rgb(0, 0, 0)" stroke="rgb(204, 204, 204)" stroke-width="1px"></line><line x1="1026.6666666666667" y1="0" x2="1026.6666666666667" y2="5" style="visibility: inherit;" fill="rgb(0, 0, 0)" stroke="rgb(204, 204, 204)" stroke-width="1px"></line><line x1="1173.3333333333333" y1="0" x2="1173.3333333333333" y2="5" style="visibility: inherit;" fill="rgb(0, 0, 0)" stroke="rgb(204, 204, 204)" stroke-width="1px"></line><line x1="1320" y1="0" x2="1320" y2="5" style="visibility: inherit;" fill="rgb(0, 0, 0)" stroke="rgb(204, 204, 204)" stroke-width="1px"></line></g><g transform="translate(0, 8)"><text x="0" y="0" dx="0em" dy="0.95em" style="text-anchor: middle; visibility: hidden; font-family: Roboto, sans-serif; font-size: 12px; font-weight: 200;" fill="rgb(50, 49, 63)" stroke="none" stroke-width="1px">-2</text><text x="146.66666666666666" y="0" dx="0em" dy="0.95em" style="text-anchor: middle; visibility: inherit; font-family: Roboto, sans-serif; font-size: 12px; font-weight: 200;" fill="rgb(50, 49, 63)" stroke="none" stroke-width="1px">0</text><text x="293.3333333333333" y="0" dx="0em" dy="0.95em" style="text-anchor: middle; visibility: inherit; font-family: Roboto, sans-serif; font-size: 12px; font-weight: 200;" fill="rgb(50, 49, 63)" stroke="none" stroke-width="1px">2</text><text x="440" y="0" dx="0em" dy="0.95em" style="text-anchor: middle; visibility: inherit; font-family: Roboto, sans-serif; font-size: 12px; font-weight: 200;" fill="rgb(50, 49, 63)" stroke="none" stroke-width="1px">4</text><text x="586.6666666666666" y="0" dx="0em" dy="0.95em" style="text-anchor: middle; visibility: inherit; font-family: Roboto, sans-serif; font-size: 12px; font-weight: 200;" fill="rgb(50, 49, 63)" stroke="none" stroke-width="1px">6</text><text x="733.3333333333334" y="0" dx="0em" dy="0.95em" style="text-anchor: middle; visibility: inherit; font-family: Roboto, sans-serif; font-size: 12px; font-weight: 200;" fill="rgb(50, 49, 63)" stroke="none" stroke-width="1px">8</text><text x="880" y="0" dx="0em" dy="0.95em" style="text-anchor: middle; visibility: inherit; font-family: Roboto, sans-serif; font-size: 12px; font-weight: 200;" fill="rgb(50, 49, 63)" stroke="none" stroke-width="1px">10</text><text x="1026.6666666666667" y="0" dx="0em" dy="0.95em" style="text-anchor: middle; visibility: inherit; font-family: Roboto, sans-serif; font-size: 12px; font-weight: 200;" fill="rgb(50, 49, 63)" stroke="none" stroke-width="1px">12</text><text x="1173.3333333333333" y="0" dx="0em" dy="0.95em" style="text-anchor: middle; visibility: inherit; font-family: Roboto, sans-serif; font-size: 12px; font-weight: 200;" fill="rgb(50, 49, 63)" stroke="none" stroke-width="1px">14</text><text x="1320" y="0" dx="0em" dy="0.95em" style="text-anchor: middle; visibility: hidden; font-family: Roboto, sans-serif; font-size: 12px; font-weight: 200;" fill="rgb(50, 49, 63)" stroke="none" stroke-width="1px">16</text></g><line x1="0" y1="0" x2="1320" y2="0" fill="rgb(0, 0, 0)" stroke="rgb(204, 204, 204)" stroke-width="1px"></line></g></g></g></g></svg>